# xmcd
#
# Track frame offsets:
#	150
#	13130
#	28687
#	43784
#	56811
#	72623
#	88845
#	128519
#	149211
#	166831
#	183966
#	198034
#	215319
#	237763
#	254739
#
# Disc length: 3692 seconds
# Revision: 1
# Processed by: cddbd v1.5.2PL0 Copyright (c) Steve Scherf et al.
# Submitted via: dBpowerAMP V12.0
#
DISCID=df0e6a0f
DTITLE=Various Artist - The Anthology [4 CD Deluxe Box Set]
DYEAR=2008
DGENRE=Blues
TTITLE0=Peter Green with Fleetwood Mac - Man of the World
TTITLE1=Peter Green with Fleetwood Mac - Before the Beginning
TTITLE2=Peter Green - Momma Don'tcha Cry
TTITLE3=Peter Green with Fleetwood Mac - Underway
TTITLE4=Peter Green with Fleetwood Mac - Rattlesnake Shake
TTITLE5=Peter Green - It's Gonna Be Me
TTITLE6=Peter Green with Fleetwood Mac - White Sky (love that evil woman)
TTITLE7=Peter Green with Fleetwood Mac - The Green Manalishi (with The Two Prong Crown)
TTITLE8=Peter Green with Fleetwood Mac - Show-Biz Blues
TTITLE9=Peter Green - In the Skies
TTITLE10=Peter Green - Like a Hot Tomato
TTITLE11=Peter Green - Whatcha Gonna Do?
TTITLE12=Peter Green - Carry My Love
TTITLE13=Peter Green - Corners of My Mind
TTITLE14=Peter Green - Hidden Depth feat. Zoot Money
EXTD=
EXTT0=
EXTT1=
EXTT2=
EXTT3=
EXTT4=
EXTT5=
EXTT6=
EXTT7=
EXTT8=
EXTT9=
EXTT10=
EXTT11=
EXTT12=
EXTT13=
EXTT14=
PLAYORDER=
